<svg id="visual" viewBox="0 0 900 600" width="900" height="600" xmlns="http://www.w3.org/2000/svg" xmlns:xlink="http://www.w3.org/1999/xlink" version="1.1"><path d="M0 450L21.5 457.2C43 464.3 86 478.7 128.8 480.8C171.7 483 214.3 473 257.2 481.7C300 490.3 343 517.7 385.8 517C428.7 516.3 471.3 487.7 514.2 487.7C557 487.7 600 516.3 642.8 512.7C685.7 509 728.3 473 771.2 465C814 457 857 477 878.5 487L900 497L900 601L878.5 601C857 601 814 601 771.2 601C728.3 601 685.7 601 642.8 601C600 601 557 601 514.2 601C471.3 601 428.7 601 385.8 601C343 601 300 601 257.2 601C214.3 601 171.7 601 128.8 601C86 601 43 601 21.5 601L0 601Z" fill="#001122"></path><path d="M0 527L21.5 519.2C43 511.3 86 495.7 128.8 491.5C171.7 487.3 214.3 494.7 257.2 500.5C300 506.3 343 510.7 385.8 509.7C428.7 508.7 471.3 502.3 514.2 499.8C557 497.3 600 498.7 642.8 493.5C685.7 488.3 728.3 476.7 771.2 483.2C814 489.7 857 514.3 878.5 526.7L900 539L900 601L878.5 601C857 601 814 601 771.2 601C728.3 601 685.7 601 642.8 601C600 601 557 601 514.2 601C471.3 601 428.7 601 385.8 601C343 601 300 601 257.2 601C214.3 601 171.7 601 128.8 601C86 601 43 601 21.5 601L0 601Z" fill="#001941"></path><path d="M0 555L21.5 545.7C43 536.3 86 517.7 128.8 511.2C171.7 504.7 214.3 510.3 257.2 512.2C300 514 343 512 385.8 518.3C428.7 524.7 471.3 539.3 514.2 550.2C557 561 600 568 642.8 562.2C685.7 556.3 728.3 537.7 771.2 524.7C814 511.7 857 504.3 878.5 500.7L900 497L900 601L878.5 601C857 601 814 601 771.2 601C728.3 601 685.7 601 642.8 601C600 601 557 601 514.2 601C471.3 601 428.7 601 385.8 601C343 601 300 601 257.2 601C214.3 601 171.7 601 128.8 601C86 601 43 601 21.5 601L0 601Z" fill="#001c5e"></path><path d="M0 584L21.5 577.2C43 570.3 86 556.7 128.8 552.5C171.7 548.3 214.3 553.7 257.2 557C300 560.3 343 561.7 385.8 565.8C428.7 570 471.3 577 514.2 572.5C557 568 600 552 642.8 544C685.7 536 728.3 536 771.2 538.5C814 541 857 546 878.5 548.5L900 551L900 601L878.5 601C857 601 814 601 771.2 601C728.3 601 685.7 601 642.8 601C600 601 557 601 514.2 601C471.3 601 428.7 601 385.8 601C343 601 300 601 257.2 601C214.3 601 171.7 601 128.8 601C86 601 43 601 21.5 601L0 601Z" fill="#001878"></path><path d="M0 556L21.5 556.2C43 556.3 86 556.7 128.8 555.7C171.7 554.7 214.3 552.3 257.2 551.2C300 550 343 550 385.8 549.8C428.7 549.7 471.3 549.3 514.2 553.8C557 558.3 600 567.7 642.8 567.8C685.7 568 728.3 559 771.2 559.2C814 559.3 857 568.7 878.5 573.3L900 578L900 601L878.5 601C857 601 814 601 771.2 601C728.3 601 685.7 601 642.8 601C600 601 557 601 514.2 601C471.3 601 428.7 601 385.8 601C343 601 300 601 257.2 601C214.3 601 171.7 601 128.8 601C86 601 43 601 21.5 601L0 601Z" fill="#070b90"></path></svg>