<svg id="visual" viewBox="0 0 900 600" width="900" height="600" xmlns="http://www.w3.org/2000/svg" xmlns:xlink="http://www.w3.org/1999/xlink" version="1.1"><rect x="0" y="0" width="900" height="600" fill="#001220"></rect><defs><linearGradient id="grad1_0" x1="33.3%" y1="0%" x2="100%" y2="100%"><stop offset="20%" stop-color="#fbae3c" stop-opacity="1"></stop><stop offset="80%" stop-color="#fbae3c" stop-opacity="1"></stop></linearGradient></defs><defs><linearGradient id="grad1_1" x1="33.3%" y1="0%" x2="100%" y2="100%"><stop offset="20%" stop-color="#fbae3c" stop-opacity="1"></stop><stop offset="80%" stop-color="#e1685e" stop-opacity="1"></stop></linearGradient></defs><defs><linearGradient id="grad1_2" x1="33.3%" y1="0%" x2="100%" y2="100%"><stop offset="20%" stop-color="#96446e" stop-opacity="1"></stop><stop offset="80%" stop-color="#e1685e" stop-opacity="1"></stop></linearGradient></defs><defs><linearGradient id="grad1_3" x1="33.3%" y1="0%" x2="100%" y2="100%"><stop offset="20%" stop-color="#96446e" stop-opacity="1"></stop><stop offset="80%" stop-color="#3d3056" stop-opacity="1"></stop></linearGradient></defs><defs><linearGradient id="grad1_4" x1="33.3%" y1="0%" x2="100%" y2="100%"><stop offset="20%" stop-color="#001220" stop-opacity="1"></stop><stop offset="80%" stop-color="#3d3056" stop-opacity="1"></stop></linearGradient></defs><defs><linearGradient id="grad2_0" x1="0%" y1="0%" x2="66.7%" y2="100%"><stop offset="20%" stop-color="#fbae3c" stop-opacity="1"></stop><stop offset="80%" stop-color="#fbae3c" stop-opacity="1"></stop></linearGradient></defs><defs><linearGradient id="grad2_1" x1="0%" y1="0%" x2="66.7%" y2="100%"><stop offset="20%" stop-color="#e1685e" stop-opacity="1"></stop><stop offset="80%" stop-color="#fbae3c" stop-opacity="1"></stop></linearGradient></defs><defs><linearGradient id="grad2_2" x1="0%" y1="0%" x2="66.7%" y2="100%"><stop offset="20%" stop-color="#e1685e" stop-opacity="1"></stop><stop offset="80%" stop-color="#96446e" stop-opacity="1"></stop></linearGradient></defs><defs><linearGradient id="grad2_3" x1="0%" y1="0%" x2="66.7%" y2="100%"><stop offset="20%" stop-color="#3d3056" stop-opacity="1"></stop><stop offset="80%" stop-color="#96446e" stop-opacity="1"></stop></linearGradient></defs><defs><linearGradient id="grad2_4" x1="0%" y1="0%" x2="66.7%" y2="100%"><stop offset="20%" stop-color="#3d3056" stop-opacity="1"></stop><stop offset="80%" stop-color="#001220" stop-opacity="1"></stop></linearGradient></defs><g transform="translate(900, 0)"><path d="M0 243.4C-50.3 241.5 -100.7 239.6 -121.7 210.8C-142.7 181.9 -134.4 126.1 -149.8 86.5C-165.2 46.9 -204.3 23.4 -243.4 0L0 0Z" fill="#18223c"></path><path d="M0 194.7C-40.3 193.2 -80.5 191.7 -97.3 168.6C-114.2 145.5 -107.5 100.9 -119.9 69.2C-132.2 37.5 -163.4 18.8 -194.7 0L0 0Z" fill="#683a67"></path><path d="M0 146C-30.2 144.9 -60.4 143.8 -73 126.5C-85.6 109.2 -80.7 75.7 -89.9 51.9C-99.1 28.1 -122.6 14.1 -146 0L0 0Z" fill="#c0526a"></path><path d="M0 97.3C-20.1 96.6 -40.3 95.8 -48.7 84.3C-57.1 72.8 -53.8 50.4 -59.9 34.6C-66.1 18.8 -81.7 9.4 -97.3 0L0 0Z" fill="#f6884d"></path><path d="M0 48.7C-10.1 48.3 -20.1 47.9 -24.3 42.2C-28.5 36.4 -26.9 25.2 -30 17.3C-33 9.4 -40.9 4.7 -48.7 0L0 0Z" fill="#fbae3c"></path></g><g transform="translate(0, 600)"><path d="M0 -243.4C45.5 -238.7 91 -234 121.7 -210.8C152.4 -187.5 168.4 -145.7 186.2 -107.5C204 -69.3 223.7 -34.6 243.4 0L0 0Z" fill="#18223c"></path><path d="M0 -194.7C36.4 -191 72.8 -187.2 97.3 -168.6C121.9 -150 134.7 -116.6 149 -86C163.2 -55.4 179 -27.7 194.7 0L0 0Z" fill="#683a67"></path><path d="M0 -146C27.3 -143.2 54.6 -140.4 73 -126.5C91.4 -112.5 101 -87.4 111.7 -64.5C122.4 -41.6 134.2 -20.8 146 0L0 0Z" fill="#c0526a"></path><path d="M0 -97.3C18.2 -95.5 36.4 -93.6 48.7 -84.3C61 -75 67.3 -58.3 74.5 -43C81.6 -27.7 89.5 -13.9 97.3 0L0 0Z" fill="#f6884d"></path><path d="M0 -48.7C9.1 -47.7 18.2 -46.8 24.3 -42.2C30.5 -37.5 33.7 -29.1 37.2 -21.5C40.8 -13.9 44.7 -6.9 48.7 0L0 0Z" fill="#fbae3c"></path></g></svg>